<mxfile host="app.diagrams.net" modified="2024-05-01T15:23:37.481Z" agent="Mozilla/5.0 (Windows NT 10.0; Win64; x64) AppleWebKit/537.36 (KHTML, like Gecko) Chrome/124.0.0.0 Safari/537.36" etag="xA6x2mUFwoX4gydv8nKt" scale="1" border="0" version="24.3.1" type="device">
  <diagram name="Página-1" id="gU1pvASSGSE8f0--qNfa">
    <mxGraphModel dx="3375" dy="2802" grid="1" gridSize="10" guides="1" tooltips="1" connect="1" arrows="1" fold="1" page="1" pageScale="1" pageWidth="1169" pageHeight="827" math="0" shadow="0">
      <root>
        <mxCell id="0" />
        <mxCell id="1" parent="0" />
        <mxCell id="fPtEteICF-gz10orUt-t-1" value="Clinica" style="rounded=0;whiteSpace=wrap;html=1;" parent="1" vertex="1">
          <mxGeometry x="110" y="-410" width="120" height="60" as="geometry" />
        </mxCell>
        <mxCell id="fPtEteICF-gz10orUt-t-2" value="" style="endArrow=none;html=1;rounded=0;entryX=0.5;entryY=1;entryDx=0;entryDy=0;" parent="1" target="fPtEteICF-gz10orUt-t-5" edge="1">
          <mxGeometry width="50" height="50" relative="1" as="geometry">
            <mxPoint x="169.5" y="-410" as="sourcePoint" />
            <mxPoint x="110" y="-470" as="targetPoint" />
          </mxGeometry>
        </mxCell>
        <mxCell id="fPtEteICF-gz10orUt-t-3" value="" style="endArrow=none;html=1;rounded=0;entryX=0.5;entryY=1;entryDx=0;entryDy=0;" parent="1" target="fPtEteICF-gz10orUt-t-7" edge="1">
          <mxGeometry width="50" height="50" relative="1" as="geometry">
            <mxPoint x="170" y="-410" as="sourcePoint" />
            <mxPoint x="230" y="-470" as="targetPoint" />
          </mxGeometry>
        </mxCell>
        <mxCell id="fPtEteICF-gz10orUt-t-4" value="" style="endArrow=none;html=1;rounded=0;exitX=0.5;exitY=0;exitDx=0;exitDy=0;" parent="1" source="fPtEteICF-gz10orUt-t-1" edge="1">
          <mxGeometry width="50" height="50" relative="1" as="geometry">
            <mxPoint x="169.5" y="-430" as="sourcePoint" />
            <mxPoint x="170" y="-470" as="targetPoint" />
          </mxGeometry>
        </mxCell>
        <mxCell id="fPtEteICF-gz10orUt-t-5" value="&lt;u&gt;nome&lt;/u&gt;" style="ellipse;whiteSpace=wrap;html=1;" parent="1" vertex="1">
          <mxGeometry x="30" y="-530" width="80" height="60" as="geometry" />
        </mxCell>
        <mxCell id="fPtEteICF-gz10orUt-t-6" value="morada" style="ellipse;whiteSpace=wrap;html=1;" parent="1" vertex="1">
          <mxGeometry x="130" y="-530" width="80" height="60" as="geometry" />
        </mxCell>
        <mxCell id="fPtEteICF-gz10orUt-t-7" value="número de&lt;div&gt;telefone&lt;/div&gt;" style="ellipse;whiteSpace=wrap;html=1;" parent="1" vertex="1">
          <mxGeometry x="230" y="-530" width="80" height="60" as="geometry" />
        </mxCell>
        <mxCell id="fPtEteICF-gz10orUt-t-12" value="Profissional de&amp;nbsp;&lt;div&gt;Saúde&lt;/div&gt;" style="rounded=0;whiteSpace=wrap;html=1;" parent="1" vertex="1">
          <mxGeometry x="442" y="-185" width="120" height="60" as="geometry" />
        </mxCell>
        <mxCell id="fPtEteICF-gz10orUt-t-14" value="&lt;u&gt;NIF&lt;/u&gt;" style="ellipse;whiteSpace=wrap;html=1;" parent="1" vertex="1">
          <mxGeometry x="310" y="-305" width="80" height="60" as="geometry" />
        </mxCell>
        <mxCell id="fPtEteICF-gz10orUt-t-16" value="nome" style="ellipse;whiteSpace=wrap;html=1;" parent="1" vertex="1">
          <mxGeometry x="396" y="-305" width="80" height="60" as="geometry" />
        </mxCell>
        <mxCell id="fPtEteICF-gz10orUt-t-17" value="morada" style="ellipse;whiteSpace=wrap;html=1;" parent="1" vertex="1">
          <mxGeometry x="486" y="-305" width="80" height="60" as="geometry" />
        </mxCell>
        <mxCell id="fPtEteICF-gz10orUt-t-18" value="telefone" style="ellipse;whiteSpace=wrap;html=1;" parent="1" vertex="1">
          <mxGeometry x="576" y="-305" width="80" height="60" as="geometry" />
        </mxCell>
        <mxCell id="fPtEteICF-gz10orUt-t-19" value="IBAN" style="ellipse;whiteSpace=wrap;html=1;" parent="1" vertex="1">
          <mxGeometry x="665" y="-305" width="80" height="60" as="geometry" />
        </mxCell>
        <mxCell id="fPtEteICF-gz10orUt-t-20" value="" style="endArrow=none;html=1;rounded=0;exitX=0.5;exitY=0;exitDx=0;exitDy=0;entryX=0.5;entryY=1;entryDx=0;entryDy=0;" parent="1" target="fPtEteICF-gz10orUt-t-14" edge="1">
          <mxGeometry width="50" height="50" relative="1" as="geometry">
            <mxPoint x="499.5" y="-185" as="sourcePoint" />
            <mxPoint x="499.5" y="-245" as="targetPoint" />
          </mxGeometry>
        </mxCell>
        <mxCell id="fPtEteICF-gz10orUt-t-21" value="" style="endArrow=none;html=1;rounded=0;exitX=0.5;exitY=0;exitDx=0;exitDy=0;entryX=0.5;entryY=1;entryDx=0;entryDy=0;" parent="1" target="fPtEteICF-gz10orUt-t-16" edge="1">
          <mxGeometry width="50" height="50" relative="1" as="geometry">
            <mxPoint x="499.5" y="-185" as="sourcePoint" />
            <mxPoint x="499.5" y="-245" as="targetPoint" />
          </mxGeometry>
        </mxCell>
        <mxCell id="fPtEteICF-gz10orUt-t-22" value="" style="endArrow=none;html=1;rounded=0;exitX=0.5;exitY=0;exitDx=0;exitDy=0;entryX=0.5;entryY=1;entryDx=0;entryDy=0;" parent="1" target="fPtEteICF-gz10orUt-t-17" edge="1">
          <mxGeometry width="50" height="50" relative="1" as="geometry">
            <mxPoint x="499.5" y="-185" as="sourcePoint" />
            <mxPoint x="499.5" y="-245" as="targetPoint" />
          </mxGeometry>
        </mxCell>
        <mxCell id="fPtEteICF-gz10orUt-t-23" value="" style="endArrow=none;html=1;rounded=0;exitX=0.5;exitY=0;exitDx=0;exitDy=0;entryX=0.5;entryY=1;entryDx=0;entryDy=0;" parent="1" target="fPtEteICF-gz10orUt-t-18" edge="1">
          <mxGeometry width="50" height="50" relative="1" as="geometry">
            <mxPoint x="499.5" y="-185" as="sourcePoint" />
            <mxPoint x="499.5" y="-245" as="targetPoint" />
          </mxGeometry>
        </mxCell>
        <mxCell id="fPtEteICF-gz10orUt-t-24" value="" style="endArrow=none;html=1;rounded=0;exitX=0.5;exitY=0;exitDx=0;exitDy=0;entryX=0.5;entryY=1;entryDx=0;entryDy=0;" parent="1" edge="1">
          <mxGeometry width="50" height="50" relative="1" as="geometry">
            <mxPoint x="499.5" y="-185" as="sourcePoint" />
            <mxPoint x="706" y="-245" as="targetPoint" />
          </mxGeometry>
        </mxCell>
        <mxCell id="fPtEteICF-gz10orUt-t-25" value="" style="shape=link;html=1;rounded=0;entryX=1;entryY=0.5;entryDx=0;entryDy=0;exitX=0.447;exitY=0.987;exitDx=0;exitDy=0;exitPerimeter=0;" parent="1" source="fPtEteICF-gz10orUt-t-12" target="fPtEteICF-gz10orUt-t-26" edge="1">
          <mxGeometry width="100" relative="1" as="geometry">
            <mxPoint x="509.5" y="-210" as="sourcePoint" />
            <mxPoint x="420" y="-150" as="targetPoint" />
          </mxGeometry>
        </mxCell>
        <mxCell id="fPtEteICF-gz10orUt-t-26" value="" style="triangle;whiteSpace=wrap;html=1;rotation=-90;" parent="1" vertex="1">
          <mxGeometry x="476" y="-65" width="40" height="50" as="geometry" />
        </mxCell>
        <mxCell id="fPtEteICF-gz10orUt-t-27" value="x" style="text;strokeColor=none;align=center;fillColor=none;html=1;verticalAlign=middle;whiteSpace=wrap;rounded=0;" parent="1" vertex="1">
          <mxGeometry x="481" y="-55" width="30" height="40" as="geometry" />
        </mxCell>
        <mxCell id="fPtEteICF-gz10orUt-t-28" value="" style="endArrow=none;html=1;rounded=0;entryX=0;entryY=0.5;entryDx=0;entryDy=0;" parent="1" target="fPtEteICF-gz10orUt-t-26" edge="1">
          <mxGeometry width="50" height="50" relative="1" as="geometry">
            <mxPoint x="436" y="75" as="sourcePoint" />
            <mxPoint x="486" y="15" as="targetPoint" />
            <Array as="points">
              <mxPoint x="436" y="35" />
              <mxPoint x="496" y="35" />
            </Array>
          </mxGeometry>
        </mxCell>
        <mxCell id="fPtEteICF-gz10orUt-t-33" value="" style="endArrow=none;html=1;rounded=0;entryX=0;entryY=0.5;entryDx=0;entryDy=0;" parent="1" target="fPtEteICF-gz10orUt-t-26" edge="1">
          <mxGeometry width="50" height="50" relative="1" as="geometry">
            <mxPoint x="556" y="75" as="sourcePoint" />
            <mxPoint x="571" y="-15" as="targetPoint" />
            <Array as="points">
              <mxPoint x="556" y="35" />
              <mxPoint x="496" y="35" />
            </Array>
          </mxGeometry>
        </mxCell>
        <mxCell id="fPtEteICF-gz10orUt-t-34" value="Médico" style="rounded=0;whiteSpace=wrap;html=1;" parent="1" vertex="1">
          <mxGeometry x="390" y="55" width="95" height="50" as="geometry" />
        </mxCell>
        <mxCell id="fPtEteICF-gz10orUt-t-36" value="Enfermeiro" style="rounded=0;whiteSpace=wrap;html=1;" parent="1" vertex="1">
          <mxGeometry x="511" y="55" width="95" height="50" as="geometry" />
        </mxCell>
        <mxCell id="0JzFk34Urz8kPae0WSKu-1" value="" style="endArrow=none;html=1;rounded=0;exitX=0.5;exitY=1;exitDx=0;exitDy=0;entryX=0.25;entryY=0;entryDx=0;entryDy=0;" parent="1" source="0JzFk34Urz8kPae0WSKu-2" target="fPtEteICF-gz10orUt-t-34" edge="1">
          <mxGeometry width="50" height="50" relative="1" as="geometry">
            <mxPoint x="436" y="135" as="sourcePoint" />
            <mxPoint x="436" y="105" as="targetPoint" />
          </mxGeometry>
        </mxCell>
        <mxCell id="0JzFk34Urz8kPae0WSKu-2" value="&lt;div&gt;especialidade&lt;/div&gt;" style="ellipse;whiteSpace=wrap;html=1;" parent="1" vertex="1">
          <mxGeometry x="340" y="-50" width="80" height="60" as="geometry" />
        </mxCell>
        <mxCell id="0JzFk34Urz8kPae0WSKu-4" value="" style="rhombus;whiteSpace=wrap;html=1;" parent="1" vertex="1">
          <mxGeometry x="90" y="230" width="60" height="60" as="geometry" />
        </mxCell>
        <mxCell id="0JzFk34Urz8kPae0WSKu-7" value="trabalha &amp;lt;" style="text;strokeColor=none;align=center;fillColor=none;html=1;verticalAlign=middle;whiteSpace=wrap;rounded=0;" parent="1" vertex="1">
          <mxGeometry x="120" y="100" width="90" height="30" as="geometry" />
        </mxCell>
        <mxCell id="0JzFk34Urz8kPae0WSKu-8" value="" style="shape=flexArrow;endArrow=classic;html=1;rounded=0;entryX=1;entryY=0.5;entryDx=0;entryDy=0;exitX=0.5;exitY=1;exitDx=0;exitDy=0;width=5.714285714285714;endSize=2.9798657718120802;endWidth=7.420901246404601;" parent="1" source="fPtEteICF-gz10orUt-t-36" target="0JzFk34Urz8kPae0WSKu-4" edge="1">
          <mxGeometry width="50" height="50" relative="1" as="geometry">
            <mxPoint x="590" y="260" as="sourcePoint" />
            <mxPoint x="260" y="220" as="targetPoint" />
            <Array as="points">
              <mxPoint x="560" y="260" />
            </Array>
          </mxGeometry>
        </mxCell>
        <mxCell id="0JzFk34Urz8kPae0WSKu-9" value="" style="shape=link;html=1;rounded=0;exitX=0.079;exitY=1.014;exitDx=0;exitDy=0;exitPerimeter=0;fillColor=#f8cecc;strokeColor=#b85450;" parent="1" source="fPtEteICF-gz10orUt-t-1" target="0JzFk34Urz8kPae0WSKu-4" edge="1">
          <mxGeometry width="100" relative="1" as="geometry">
            <mxPoint x="119.66000000000003" y="-210" as="sourcePoint" />
            <mxPoint x="119.66000000000003" y="-175" as="targetPoint" />
          </mxGeometry>
        </mxCell>
        <mxCell id="0JzFk34Urz8kPae0WSKu-11" value="" style="shape=link;html=1;rounded=0;exitX=0;exitY=0.5;exitDx=0;exitDy=0;entryX=1;entryY=0.5;entryDx=0;entryDy=0;" parent="1" source="fPtEteICF-gz10orUt-t-34" target="mR88p4myXI2G3r5EA46a-41" edge="1">
          <mxGeometry width="100" relative="1" as="geometry">
            <mxPoint x="280" y="-60" as="sourcePoint" />
            <mxPoint x="190" y="85" as="targetPoint" />
          </mxGeometry>
        </mxCell>
        <mxCell id="0JzFk34Urz8kPae0WSKu-12" value="" style="shape=link;html=1;rounded=0;entryX=0.5;entryY=0;entryDx=0;entryDy=0;exitX=0.421;exitY=1.014;exitDx=0;exitDy=0;exitPerimeter=0;" parent="1" source="fPtEteICF-gz10orUt-t-1" target="mR88p4myXI2G3r5EA46a-41" edge="1">
          <mxGeometry width="100" relative="1" as="geometry">
            <mxPoint x="160" y="-210" as="sourcePoint" />
            <mxPoint x="160" y="55" as="targetPoint" />
          </mxGeometry>
        </mxCell>
        <mxCell id="0JzFk34Urz8kPae0WSKu-13" value="Dia" style="ellipse;whiteSpace=wrap;html=1;fillColor=#f8cecc;strokeColor=#b85450;" parent="1" vertex="1">
          <mxGeometry x="180" y="25" width="40" height="30" as="geometry" />
        </mxCell>
        <mxCell id="0JzFk34Urz8kPae0WSKu-14" value="" style="endArrow=none;html=1;rounded=0;exitX=1;exitY=0;exitDx=0;exitDy=0;entryX=0.5;entryY=1;entryDx=0;entryDy=0;fillColor=#f8cecc;strokeColor=#b85450;" parent="1" source="mR88p4myXI2G3r5EA46a-41" target="0JzFk34Urz8kPae0WSKu-13" edge="1">
          <mxGeometry width="50" height="50" relative="1" as="geometry">
            <mxPoint x="175" y="70" as="sourcePoint" />
            <mxPoint x="209" y="-5" as="targetPoint" />
          </mxGeometry>
        </mxCell>
        <mxCell id="0JzFk34Urz8kPae0WSKu-15" value="Paciente" style="rounded=0;whiteSpace=wrap;html=1;" parent="1" vertex="1">
          <mxGeometry x="-682" y="465" width="120" height="60" as="geometry" />
        </mxCell>
        <mxCell id="0JzFk34Urz8kPae0WSKu-16" value="&lt;u&gt;Nº SNS&lt;/u&gt;" style="ellipse;whiteSpace=wrap;html=1;" parent="1" vertex="1">
          <mxGeometry x="-737" y="595" width="80" height="60" as="geometry" />
        </mxCell>
        <mxCell id="0JzFk34Urz8kPae0WSKu-17" value="" style="endArrow=none;html=1;rounded=0;exitX=0.5;exitY=0;exitDx=0;exitDy=0;entryX=0.5;entryY=1;entryDx=0;entryDy=0;" parent="1" source="0JzFk34Urz8kPae0WSKu-16" target="0JzFk34Urz8kPae0WSKu-15" edge="1">
          <mxGeometry width="50" height="50" relative="1" as="geometry">
            <mxPoint x="-487.5" y="605" as="sourcePoint" />
            <mxPoint x="-637" y="545" as="targetPoint" />
          </mxGeometry>
        </mxCell>
        <mxCell id="0JzFk34Urz8kPae0WSKu-18" value="nome" style="ellipse;whiteSpace=wrap;html=1;" parent="1" vertex="1">
          <mxGeometry x="-647" y="595" width="80" height="60" as="geometry" />
        </mxCell>
        <mxCell id="0JzFk34Urz8kPae0WSKu-19" value="NIF" style="ellipse;whiteSpace=wrap;html=1;" parent="1" vertex="1">
          <mxGeometry x="-557" y="595" width="80" height="60" as="geometry" />
        </mxCell>
        <mxCell id="0JzFk34Urz8kPae0WSKu-20" value="data de&amp;nbsp;&lt;div&gt;nasicmento&lt;/div&gt;" style="ellipse;whiteSpace=wrap;html=1;" parent="1" vertex="1">
          <mxGeometry x="-467" y="595" width="80" height="60" as="geometry" />
        </mxCell>
        <mxCell id="0JzFk34Urz8kPae0WSKu-21" value="morada" style="ellipse;whiteSpace=wrap;html=1;" parent="1" vertex="1">
          <mxGeometry x="-377.5" y="595" width="80" height="60" as="geometry" />
        </mxCell>
        <mxCell id="0JzFk34Urz8kPae0WSKu-22" value="telefone" style="ellipse;whiteSpace=wrap;html=1;" parent="1" vertex="1">
          <mxGeometry x="-290" y="595" width="80" height="60" as="geometry" />
        </mxCell>
        <mxCell id="0JzFk34Urz8kPae0WSKu-23" value="" style="endArrow=none;html=1;rounded=0;exitX=0.5;exitY=0;exitDx=0;exitDy=0;entryX=0.5;entryY=1;entryDx=0;entryDy=0;" parent="1" source="0JzFk34Urz8kPae0WSKu-18" target="0JzFk34Urz8kPae0WSKu-15" edge="1">
          <mxGeometry width="50" height="50" relative="1" as="geometry">
            <mxPoint x="-687" y="605" as="sourcePoint" />
            <mxPoint x="-612" y="535" as="targetPoint" />
          </mxGeometry>
        </mxCell>
        <mxCell id="0JzFk34Urz8kPae0WSKu-24" value="" style="endArrow=none;html=1;rounded=0;exitX=0.5;exitY=0;exitDx=0;exitDy=0;entryX=0.5;entryY=1;entryDx=0;entryDy=0;" parent="1" source="0JzFk34Urz8kPae0WSKu-19" target="0JzFk34Urz8kPae0WSKu-15" edge="1">
          <mxGeometry width="50" height="50" relative="1" as="geometry">
            <mxPoint x="-677" y="615" as="sourcePoint" />
            <mxPoint x="-602" y="545" as="targetPoint" />
          </mxGeometry>
        </mxCell>
        <mxCell id="0JzFk34Urz8kPae0WSKu-25" value="" style="endArrow=none;html=1;rounded=0;exitX=0.5;exitY=0;exitDx=0;exitDy=0;entryX=0.5;entryY=1;entryDx=0;entryDy=0;" parent="1" source="0JzFk34Urz8kPae0WSKu-20" target="0JzFk34Urz8kPae0WSKu-15" edge="1">
          <mxGeometry width="50" height="50" relative="1" as="geometry">
            <mxPoint x="-667" y="625" as="sourcePoint" />
            <mxPoint x="-592" y="555" as="targetPoint" />
          </mxGeometry>
        </mxCell>
        <mxCell id="0JzFk34Urz8kPae0WSKu-26" value="" style="endArrow=none;html=1;rounded=0;exitX=0.5;exitY=0;exitDx=0;exitDy=0;entryX=0.5;entryY=1;entryDx=0;entryDy=0;" parent="1" source="0JzFk34Urz8kPae0WSKu-21" target="0JzFk34Urz8kPae0WSKu-15" edge="1">
          <mxGeometry width="50" height="50" relative="1" as="geometry">
            <mxPoint x="-657" y="635" as="sourcePoint" />
            <mxPoint x="-582" y="565" as="targetPoint" />
          </mxGeometry>
        </mxCell>
        <mxCell id="0JzFk34Urz8kPae0WSKu-27" value="" style="endArrow=none;html=1;rounded=0;exitX=0.5;exitY=0;exitDx=0;exitDy=0;entryX=0.5;entryY=1;entryDx=0;entryDy=0;" parent="1" source="0JzFk34Urz8kPae0WSKu-22" target="0JzFk34Urz8kPae0WSKu-15" edge="1">
          <mxGeometry width="50" height="50" relative="1" as="geometry">
            <mxPoint x="-647" y="645" as="sourcePoint" />
            <mxPoint x="-572" y="575" as="targetPoint" />
          </mxGeometry>
        </mxCell>
        <mxCell id="0JzFk34Urz8kPae0WSKu-45" value="" style="shape=link;html=1;rounded=0;entryX=0;entryY=0.5;entryDx=0;entryDy=0;" parent="1" target="0JzFk34Urz8kPae0WSKu-15" edge="1">
          <mxGeometry width="100" relative="1" as="geometry">
            <mxPoint x="-780" y="495" as="sourcePoint" />
            <mxPoint x="-700" y="494.4100000000001" as="targetPoint" />
          </mxGeometry>
        </mxCell>
        <mxCell id="0JzFk34Urz8kPae0WSKu-46" value="" style="rhombus;whiteSpace=wrap;html=1;" parent="1" vertex="1">
          <mxGeometry x="-892" y="150" width="60" height="60" as="geometry" />
        </mxCell>
        <mxCell id="0JzFk34Urz8kPae0WSKu-47" value="&amp;lt; têm" style="text;strokeColor=none;align=center;fillColor=none;html=1;verticalAlign=middle;whiteSpace=wrap;rounded=0;" parent="1" vertex="1">
          <mxGeometry x="-907" y="125" width="90" height="30" as="geometry" />
        </mxCell>
        <mxCell id="0JzFk34Urz8kPae0WSKu-48" value="" style="rhombus;whiteSpace=wrap;html=1;fillColor=#f8cecc;strokeColor=#b85450;" parent="1" vertex="1">
          <mxGeometry x="-887" y="155" width="50" height="50" as="geometry" />
        </mxCell>
        <mxCell id="0JzFk34Urz8kPae0WSKu-49" value="" style="rounded=0;whiteSpace=wrap;html=1;" parent="1" vertex="1">
          <mxGeometry x="-1122" y="150" width="120" height="60" as="geometry" />
        </mxCell>
        <mxCell id="0JzFk34Urz8kPae0WSKu-50" value="Sistema de Saúde" style="rounded=0;whiteSpace=wrap;html=1;fillColor=#f8cecc;strokeColor=#b85450;" parent="1" vertex="1">
          <mxGeometry x="-1117" y="155" width="110" height="50" as="geometry" />
        </mxCell>
        <mxCell id="0JzFk34Urz8kPae0WSKu-52" value="" style="shape=flexArrow;endArrow=classic;html=1;rounded=0;entryX=0;entryY=0.5;entryDx=0;entryDy=0;exitX=1;exitY=0.5;exitDx=0;exitDy=0;width=5.714285714285714;endSize=2.9798657718120802;endWidth=7.420901246404601;fillColor=#f8cecc;strokeColor=#b85450;" parent="1" source="0JzFk34Urz8kPae0WSKu-49" target="0JzFk34Urz8kPae0WSKu-46" edge="1">
          <mxGeometry width="50" height="50" relative="1" as="geometry">
            <mxPoint x="-392" y="-75" as="sourcePoint" />
            <mxPoint x="-813" y="75" as="targetPoint" />
            <Array as="points" />
          </mxGeometry>
        </mxCell>
        <mxCell id="0JzFk34Urz8kPae0WSKu-53" value="nome do sistema" style="ellipse;whiteSpace=wrap;html=1;" parent="1" vertex="1">
          <mxGeometry x="-1102" y="250" width="80" height="60" as="geometry" />
        </mxCell>
        <mxCell id="0JzFk34Urz8kPae0WSKu-54" value="" style="endArrow=none;html=1;rounded=0;exitX=0.5;exitY=0;exitDx=0;exitDy=0;entryX=0.5;entryY=1;entryDx=0;entryDy=0;" parent="1" source="0JzFk34Urz8kPae0WSKu-53" target="0JzFk34Urz8kPae0WSKu-49" edge="1">
          <mxGeometry width="50" height="50" relative="1" as="geometry">
            <mxPoint x="-967" y="290" as="sourcePoint" />
            <mxPoint x="-982" y="220" as="targetPoint" />
          </mxGeometry>
        </mxCell>
        <mxCell id="0JzFk34Urz8kPae0WSKu-55" value="" style="endArrow=none;dashed=1;html=1;rounded=0;" parent="1" edge="1">
          <mxGeometry width="50" height="50" relative="1" as="geometry">
            <mxPoint x="-1084.5" y="279" as="sourcePoint" />
            <mxPoint x="-1039.5" y="279" as="targetPoint" />
          </mxGeometry>
        </mxCell>
        <mxCell id="0JzFk34Urz8kPae0WSKu-58" value="" style="endArrow=none;dashed=1;html=1;rounded=0;" parent="1" edge="1">
          <mxGeometry width="50" height="50" relative="1" as="geometry">
            <mxPoint x="-1081.5" y="294" as="sourcePoint" />
            <mxPoint x="-1040" y="294" as="targetPoint" />
          </mxGeometry>
        </mxCell>
        <mxCell id="6Dvl7Cm2NqjIhnTXTcF5-1" value="RI-1" style="text;html=1;align=center;verticalAlign=middle;whiteSpace=wrap;rounded=0;" parent="1" vertex="1">
          <mxGeometry x="140" y="-560" width="60" height="30" as="geometry" />
        </mxCell>
        <mxCell id="6Dvl7Cm2NqjIhnTXTcF5-2" value="RI-2" style="text;html=1;align=center;verticalAlign=middle;whiteSpace=wrap;rounded=0;" parent="1" vertex="1">
          <mxGeometry x="270" y="-558" width="60" height="30" as="geometry" />
        </mxCell>
        <mxCell id="6Dvl7Cm2NqjIhnTXTcF5-3" value="RI-1 : A morada é única em Clínica." style="text;html=1;align=left;verticalAlign=middle;whiteSpace=wrap;rounded=0;" parent="1" vertex="1">
          <mxGeometry x="800" y="-800" width="360" height="30" as="geometry" />
        </mxCell>
        <mxCell id="6Dvl7Cm2NqjIhnTXTcF5-4" value="RI-3 : Os médicos têm uma especialidade escolhida de uma lista de especialidades reconhecidas pela ordem dos médicos." style="text;html=1;align=left;verticalAlign=middle;whiteSpace=wrap;rounded=0;" parent="1" vertex="1">
          <mxGeometry x="800" y="-720" width="360" height="30" as="geometry" />
        </mxCell>
        <mxCell id="6Dvl7Cm2NqjIhnTXTcF5-5" value="RI-3" style="text;html=1;align=center;verticalAlign=middle;whiteSpace=wrap;rounded=0;" parent="1" vertex="1">
          <mxGeometry x="300" y="-70" width="60" height="30" as="geometry" />
        </mxCell>
        <mxCell id="6Dvl7Cm2NqjIhnTXTcF5-6" value="RI-2 : O número de telefone é único em Clínica." style="text;html=1;align=left;verticalAlign=middle;whiteSpace=wrap;rounded=0;" parent="1" vertex="1">
          <mxGeometry x="800" y="-760" width="360" height="30" as="geometry" />
        </mxCell>
        <mxCell id="6Dvl7Cm2NqjIhnTXTcF5-8" value="RI-4" style="text;html=1;align=center;verticalAlign=middle;whiteSpace=wrap;rounded=0;" parent="1" vertex="1">
          <mxGeometry x="160" y="80" width="60" height="30" as="geometry" />
        </mxCell>
        <mxCell id="6Dvl7Cm2NqjIhnTXTcF5-10" value="RI-4 : Médicos só podem estar alocados a uma clínica a cada dia da semana." style="text;html=1;align=left;verticalAlign=middle;whiteSpace=wrap;rounded=0;fillColor=#f8cecc;strokeColor=#b85450;" parent="1" vertex="1">
          <mxGeometry x="800" y="-680" width="360" height="30" as="geometry" />
        </mxCell>
        <mxCell id="6Dvl7Cm2NqjIhnTXTcF5-62" value="Paciente" style="rounded=0;whiteSpace=wrap;html=1;" parent="1" vertex="1">
          <mxGeometry x="-692" y="150" width="120" height="60" as="geometry" />
        </mxCell>
        <mxCell id="6Dvl7Cm2NqjIhnTXTcF5-63" value="&lt;u&gt;nº SNS&lt;/u&gt;" style="ellipse;whiteSpace=wrap;html=1;" parent="1" vertex="1">
          <mxGeometry x="-747" y="280" width="80" height="60" as="geometry" />
        </mxCell>
        <mxCell id="6Dvl7Cm2NqjIhnTXTcF5-64" value="" style="endArrow=none;html=1;rounded=0;exitX=0.5;exitY=0;exitDx=0;exitDy=0;entryX=0.5;entryY=1;entryDx=0;entryDy=0;" parent="1" source="6Dvl7Cm2NqjIhnTXTcF5-63" target="6Dvl7Cm2NqjIhnTXTcF5-62" edge="1">
          <mxGeometry width="50" height="50" relative="1" as="geometry">
            <mxPoint x="-497.5" y="290" as="sourcePoint" />
            <mxPoint x="-647" y="230" as="targetPoint" />
          </mxGeometry>
        </mxCell>
        <mxCell id="6Dvl7Cm2NqjIhnTXTcF5-65" value="nome" style="ellipse;whiteSpace=wrap;html=1;" parent="1" vertex="1">
          <mxGeometry x="-657" y="280" width="80" height="60" as="geometry" />
        </mxCell>
        <mxCell id="6Dvl7Cm2NqjIhnTXTcF5-66" value="NIF" style="ellipse;whiteSpace=wrap;html=1;" parent="1" vertex="1">
          <mxGeometry x="-567" y="280" width="80" height="60" as="geometry" />
        </mxCell>
        <mxCell id="6Dvl7Cm2NqjIhnTXTcF5-67" value="data de&amp;nbsp;&lt;div&gt;nasicmento&lt;/div&gt;" style="ellipse;whiteSpace=wrap;html=1;" parent="1" vertex="1">
          <mxGeometry x="-477" y="280" width="80" height="60" as="geometry" />
        </mxCell>
        <mxCell id="6Dvl7Cm2NqjIhnTXTcF5-68" value="morada" style="ellipse;whiteSpace=wrap;html=1;" parent="1" vertex="1">
          <mxGeometry x="-387.5" y="280" width="80" height="60" as="geometry" />
        </mxCell>
        <mxCell id="6Dvl7Cm2NqjIhnTXTcF5-69" value="telefone" style="ellipse;whiteSpace=wrap;html=1;" parent="1" vertex="1">
          <mxGeometry x="-300" y="280" width="80" height="60" as="geometry" />
        </mxCell>
        <mxCell id="6Dvl7Cm2NqjIhnTXTcF5-70" value="" style="endArrow=none;html=1;rounded=0;exitX=0.5;exitY=0;exitDx=0;exitDy=0;entryX=0.5;entryY=1;entryDx=0;entryDy=0;" parent="1" source="6Dvl7Cm2NqjIhnTXTcF5-65" target="6Dvl7Cm2NqjIhnTXTcF5-62" edge="1">
          <mxGeometry width="50" height="50" relative="1" as="geometry">
            <mxPoint x="-697" y="290" as="sourcePoint" />
            <mxPoint x="-622" y="220" as="targetPoint" />
          </mxGeometry>
        </mxCell>
        <mxCell id="6Dvl7Cm2NqjIhnTXTcF5-71" value="" style="endArrow=none;html=1;rounded=0;exitX=0.5;exitY=0;exitDx=0;exitDy=0;entryX=0.5;entryY=1;entryDx=0;entryDy=0;" parent="1" source="6Dvl7Cm2NqjIhnTXTcF5-66" target="6Dvl7Cm2NqjIhnTXTcF5-62" edge="1">
          <mxGeometry width="50" height="50" relative="1" as="geometry">
            <mxPoint x="-687" y="300" as="sourcePoint" />
            <mxPoint x="-612" y="230" as="targetPoint" />
          </mxGeometry>
        </mxCell>
        <mxCell id="6Dvl7Cm2NqjIhnTXTcF5-72" value="" style="endArrow=none;html=1;rounded=0;exitX=0.5;exitY=0;exitDx=0;exitDy=0;entryX=0.5;entryY=1;entryDx=0;entryDy=0;" parent="1" source="6Dvl7Cm2NqjIhnTXTcF5-67" target="6Dvl7Cm2NqjIhnTXTcF5-62" edge="1">
          <mxGeometry width="50" height="50" relative="1" as="geometry">
            <mxPoint x="-677" y="310" as="sourcePoint" />
            <mxPoint x="-602" y="240" as="targetPoint" />
          </mxGeometry>
        </mxCell>
        <mxCell id="6Dvl7Cm2NqjIhnTXTcF5-73" value="" style="endArrow=none;html=1;rounded=0;exitX=0.5;exitY=0;exitDx=0;exitDy=0;entryX=0.5;entryY=1;entryDx=0;entryDy=0;" parent="1" source="6Dvl7Cm2NqjIhnTXTcF5-68" target="6Dvl7Cm2NqjIhnTXTcF5-62" edge="1">
          <mxGeometry width="50" height="50" relative="1" as="geometry">
            <mxPoint x="-667" y="320" as="sourcePoint" />
            <mxPoint x="-592" y="250" as="targetPoint" />
          </mxGeometry>
        </mxCell>
        <mxCell id="6Dvl7Cm2NqjIhnTXTcF5-74" value="" style="endArrow=none;html=1;rounded=0;exitX=0.5;exitY=0;exitDx=0;exitDy=0;entryX=0.5;entryY=1;entryDx=0;entryDy=0;" parent="1" source="6Dvl7Cm2NqjIhnTXTcF5-69" target="6Dvl7Cm2NqjIhnTXTcF5-62" edge="1">
          <mxGeometry width="50" height="50" relative="1" as="geometry">
            <mxPoint x="-657" y="330" as="sourcePoint" />
            <mxPoint x="-582" y="260" as="targetPoint" />
          </mxGeometry>
        </mxCell>
        <mxCell id="6Dvl7Cm2NqjIhnTXTcF5-75" value="" style="shape=link;html=1;rounded=0;entryX=0;entryY=0.5;entryDx=0;entryDy=0;exitX=1;exitY=0.5;exitDx=0;exitDy=0;" parent="1" source="0JzFk34Urz8kPae0WSKu-46" target="6Dvl7Cm2NqjIhnTXTcF5-62" edge="1">
          <mxGeometry width="100" relative="1" as="geometry">
            <mxPoint x="-810" y="185" as="sourcePoint" />
            <mxPoint x="-710" y="179.41000000000008" as="targetPoint" />
          </mxGeometry>
        </mxCell>
        <mxCell id="6Dvl7Cm2NqjIhnTXTcF5-76" value="" style="rhombus;whiteSpace=wrap;html=1;" parent="1" vertex="1">
          <mxGeometry x="-829" y="465" width="60" height="60" as="geometry" />
        </mxCell>
        <mxCell id="6Dvl7Cm2NqjIhnTXTcF5-79" value="Sistema de Saúde" style="rounded=0;whiteSpace=wrap;html=1;" parent="1" vertex="1">
          <mxGeometry x="-1049" y="475" width="110" height="50" as="geometry" />
        </mxCell>
        <mxCell id="6Dvl7Cm2NqjIhnTXTcF5-80" value="" style="shape=flexArrow;endArrow=classic;html=1;rounded=0;entryX=0;entryY=0.5;entryDx=0;entryDy=0;exitX=1;exitY=0.5;exitDx=0;exitDy=0;width=5.714285714285714;endSize=2.9798657718120802;endWidth=7.420901246404601;fillColor=#f8cecc;strokeColor=#b85450;" parent="1" target="6Dvl7Cm2NqjIhnTXTcF5-76" edge="1">
          <mxGeometry width="50" height="50" relative="1" as="geometry">
            <mxPoint x="-939" y="495" as="sourcePoint" />
            <mxPoint x="-750" y="390" as="targetPoint" />
            <Array as="points" />
          </mxGeometry>
        </mxCell>
        <mxCell id="6Dvl7Cm2NqjIhnTXTcF5-82" value="" style="endArrow=none;html=1;rounded=0;exitX=0.5;exitY=0;exitDx=0;exitDy=0;entryX=0.5;entryY=1;entryDx=0;entryDy=0;" parent="1" edge="1">
          <mxGeometry width="50" height="50" relative="1" as="geometry">
            <mxPoint x="-999" y="565" as="sourcePoint" />
            <mxPoint x="-999" y="525" as="targetPoint" />
          </mxGeometry>
        </mxCell>
        <mxCell id="6Dvl7Cm2NqjIhnTXTcF5-86" value="nome do sistema" style="ellipse;whiteSpace=wrap;html=1;align=center;fontStyle=4" parent="1" vertex="1">
          <mxGeometry x="-1049" y="565" width="100" height="40" as="geometry" />
        </mxCell>
        <mxCell id="6Dvl7Cm2NqjIhnTXTcF5-87" value="clinica tem de ter pelo menos um enfermeiro?" style="text;html=1;align=center;verticalAlign=middle;whiteSpace=wrap;rounded=0;fontColor=#FF9999;" parent="1" vertex="1">
          <mxGeometry y="-220" width="120" height="30" as="geometry" />
        </mxCell>
        <mxCell id="6Dvl7Cm2NqjIhnTXTcF5-88" value="entidade fraca?" style="text;html=1;align=center;verticalAlign=middle;whiteSpace=wrap;rounded=0;fontColor=#FF9999;" parent="1" vertex="1">
          <mxGeometry x="-1169" y="120" width="120" height="30" as="geometry" />
        </mxCell>
        <mxCell id="6Dvl7Cm2NqjIhnTXTcF5-89" value="sist saúde pode ter varios pacientes?" style="text;html=1;align=center;verticalAlign=middle;whiteSpace=wrap;rounded=0;fontColor=#FF9999;" parent="1" vertex="1">
          <mxGeometry x="-992" y="195" width="120" height="30" as="geometry" />
        </mxCell>
        <mxCell id="6Dvl7Cm2NqjIhnTXTcF5-90" value="" style="endArrow=none;html=1;rounded=0;exitX=0.5;exitY=0;exitDx=0;exitDy=0;entryX=0.5;entryY=1;entryDx=0;entryDy=0;" parent="1" edge="1">
          <mxGeometry width="50" height="50" relative="1" as="geometry">
            <mxPoint x="-799" y="565" as="sourcePoint" />
            <mxPoint x="-799" y="525" as="targetPoint" />
          </mxGeometry>
        </mxCell>
        <mxCell id="6Dvl7Cm2NqjIhnTXTcF5-91" value="nº SNS do paciente" style="ellipse;whiteSpace=wrap;html=1;align=center;fontStyle=4;fillColor=#f8cecc;strokeColor=#b85450;" parent="1" vertex="1">
          <mxGeometry x="-849" y="565" width="100" height="40" as="geometry" />
        </mxCell>
        <mxCell id="6Dvl7Cm2NqjIhnTXTcF5-97" value="" style="rhombus;whiteSpace=wrap;html=1;" parent="1" vertex="1">
          <mxGeometry x="-95" y="-400" width="40" height="40" as="geometry" />
        </mxCell>
        <mxCell id="6Dvl7Cm2NqjIhnTXTcF5-102" value="consulta" style="text;align=center;html=1;verticalAlign=middle;whiteSpace=wrap;rounded=0;fontColor=#FF9999;" parent="1" vertex="1">
          <mxGeometry x="-120" y="-360" width="90" height="30" as="geometry" />
        </mxCell>
        <mxCell id="6Dvl7Cm2NqjIhnTXTcF5-103" value="" style="endArrow=none;html=1;rounded=0;entryX=0;entryY=0.5;entryDx=0;entryDy=0;fillColor=#f8cecc;strokeColor=#b85450;" parent="1" target="6Dvl7Cm2NqjIhnTXTcF5-104" edge="1">
          <mxGeometry width="50" height="50" relative="1" as="geometry">
            <mxPoint x="-572" y="199.93" as="sourcePoint" />
            <mxPoint x="-120" y="199.93" as="targetPoint" />
          </mxGeometry>
        </mxCell>
        <mxCell id="6Dvl7Cm2NqjIhnTXTcF5-104" value="" style="rhombus;whiteSpace=wrap;html=1;" parent="1" vertex="1">
          <mxGeometry x="-240" y="180" width="40" height="40" as="geometry" />
        </mxCell>
        <mxCell id="6Dvl7Cm2NqjIhnTXTcF5-105" value="" style="endArrow=none;html=1;rounded=0;exitX=1;exitY=0.5;exitDx=0;exitDy=0;fillColor=#f8cecc;strokeColor=#b85450;" parent="1" source="6Dvl7Cm2NqjIhnTXTcF5-104" edge="1">
          <mxGeometry width="50" height="50" relative="1" as="geometry">
            <mxPoint x="-80" y="199.82999999999996" as="sourcePoint" />
            <mxPoint x="530" y="200" as="targetPoint" />
          </mxGeometry>
        </mxCell>
        <mxCell id="6Dvl7Cm2NqjIhnTXTcF5-106" value="" style="endArrow=none;html=1;rounded=0;entryX=0.201;entryY=1.025;entryDx=0;entryDy=0;entryPerimeter=0;" parent="1" target="fPtEteICF-gz10orUt-t-36" edge="1">
          <mxGeometry width="50" height="50" relative="1" as="geometry">
            <mxPoint x="530" y="200" as="sourcePoint" />
            <mxPoint x="525.8700000000001" y="123" as="targetPoint" />
          </mxGeometry>
        </mxCell>
        <mxCell id="6Dvl7Cm2NqjIhnTXTcF5-107" value="presta serviços &amp;lt;" style="text;align=center;html=1;verticalAlign=middle;whiteSpace=wrap;rounded=0;fontColor=#FF9999;" parent="1" vertex="1">
          <mxGeometry x="-270" y="220" width="100" height="30" as="geometry" />
        </mxCell>
        <mxCell id="6Dvl7Cm2NqjIhnTXTcF5-108" value="prof disse que medicamentos n é uma entidade fraca - podemos por um atributo tipo nome i think (dps temos de confirmar tho)" style="text;html=1;align=center;verticalAlign=middle;whiteSpace=wrap;rounded=0;" parent="1" vertex="1">
          <mxGeometry x="-1140" y="-970" width="350" height="30" as="geometry" />
        </mxCell>
        <mxCell id="6Dvl7Cm2NqjIhnTXTcF5-109" value="e tmb deu a hint que a marcacao de consultas vai ser qq coisa tipo a cena dos horarios do cenario 6 do lab 4" style="text;html=1;align=center;verticalAlign=middle;whiteSpace=wrap;rounded=0;" parent="1" vertex="1">
          <mxGeometry x="-1140" y="-930" width="350" height="30" as="geometry" />
        </mxCell>
        <mxCell id="mR88p4myXI2G3r5EA46a-2" value="Marcação" style="rounded=0;whiteSpace=wrap;html=1;" vertex="1" parent="1">
          <mxGeometry x="-377.5" y="-410" width="120" height="60" as="geometry" />
        </mxCell>
        <mxCell id="mR88p4myXI2G3r5EA46a-3" value="" style="endArrow=none;html=1;rounded=0;exitX=0.5;exitY=0;exitDx=0;exitDy=0;entryX=0.5;entryY=1;entryDx=0;entryDy=0;" edge="1" parent="1" source="mR88p4myXI2G3r5EA46a-2" target="mR88p4myXI2G3r5EA46a-6">
          <mxGeometry width="50" height="50" relative="1" as="geometry">
            <mxPoint x="-350.5" y="-420" as="sourcePoint" />
            <mxPoint x="-370" y="-450" as="targetPoint" />
          </mxGeometry>
        </mxCell>
        <mxCell id="mR88p4myXI2G3r5EA46a-4" value="" style="endArrow=none;html=1;rounded=0;exitX=0.5;exitY=0;exitDx=0;exitDy=0;entryX=0.5;entryY=1;entryDx=0;entryDy=0;" edge="1" parent="1" source="mR88p4myXI2G3r5EA46a-2" target="mR88p4myXI2G3r5EA46a-7">
          <mxGeometry width="50" height="50" relative="1" as="geometry">
            <mxPoint x="-280" y="-460" as="sourcePoint" />
            <mxPoint x="-300" y="-470" as="targetPoint" />
          </mxGeometry>
        </mxCell>
        <mxCell id="mR88p4myXI2G3r5EA46a-5" value="" style="endArrow=none;html=1;rounded=0;exitX=0.5;exitY=0;exitDx=0;exitDy=0;entryX=0.5;entryY=1;entryDx=0;entryDy=0;" edge="1" parent="1" source="mR88p4myXI2G3r5EA46a-2" target="mR88p4myXI2G3r5EA46a-8">
          <mxGeometry width="50" height="50" relative="1" as="geometry">
            <mxPoint x="-245" y="-430" as="sourcePoint" />
            <mxPoint x="-230" y="-450" as="targetPoint" />
          </mxGeometry>
        </mxCell>
        <mxCell id="mR88p4myXI2G3r5EA46a-6" value="&lt;u&gt;hora inicio&lt;/u&gt;" style="ellipse;whiteSpace=wrap;html=1;" vertex="1" parent="1">
          <mxGeometry x="-457.5" y="-528" width="80" height="60" as="geometry" />
        </mxCell>
        <mxCell id="mR88p4myXI2G3r5EA46a-7" value="&lt;u&gt;hora fim&lt;/u&gt;" style="ellipse;whiteSpace=wrap;html=1;" vertex="1" parent="1">
          <mxGeometry x="-357.5" y="-528" width="80" height="60" as="geometry" />
        </mxCell>
        <mxCell id="mR88p4myXI2G3r5EA46a-8" value="&lt;u&gt;dia&lt;/u&gt;" style="ellipse;whiteSpace=wrap;html=1;" vertex="1" parent="1">
          <mxGeometry x="-257.5" y="-528" width="80" height="60" as="geometry" />
        </mxCell>
        <mxCell id="mR88p4myXI2G3r5EA46a-9" value="" style="endArrow=none;html=1;rounded=0;exitX=1;exitY=0.5;exitDx=0;exitDy=0;entryX=0;entryY=0.5;entryDx=0;entryDy=0;" edge="1" parent="1" source="mR88p4myXI2G3r5EA46a-2" target="6Dvl7Cm2NqjIhnTXTcF5-97">
          <mxGeometry width="50" height="50" relative="1" as="geometry">
            <mxPoint x="-177.5" y="-384" as="sourcePoint" />
            <mxPoint x="-76.5" y="-442" as="targetPoint" />
          </mxGeometry>
        </mxCell>
        <mxCell id="mR88p4myXI2G3r5EA46a-12" value="" style="endArrow=none;dashed=1;html=1;rounded=0;" edge="1" parent="1">
          <mxGeometry width="50" height="50" relative="1" as="geometry">
            <mxPoint x="-480" y="-320" as="sourcePoint" />
            <mxPoint x="-480" y="-560" as="targetPoint" />
          </mxGeometry>
        </mxCell>
        <mxCell id="mR88p4myXI2G3r5EA46a-13" value="" style="endArrow=none;dashed=1;html=1;rounded=0;" edge="1" parent="1">
          <mxGeometry width="50" height="50" relative="1" as="geometry">
            <mxPoint x="340" y="-320" as="sourcePoint" />
            <mxPoint x="340" y="-560" as="targetPoint" />
          </mxGeometry>
        </mxCell>
        <mxCell id="mR88p4myXI2G3r5EA46a-14" value="" style="endArrow=none;dashed=1;html=1;rounded=0;" edge="1" parent="1">
          <mxGeometry width="50" height="50" relative="1" as="geometry">
            <mxPoint x="-480" y="-320" as="sourcePoint" />
            <mxPoint x="340" y="-320" as="targetPoint" />
          </mxGeometry>
        </mxCell>
        <mxCell id="mR88p4myXI2G3r5EA46a-15" value="" style="endArrow=none;dashed=1;html=1;rounded=0;" edge="1" parent="1">
          <mxGeometry width="50" height="50" relative="1" as="geometry">
            <mxPoint x="-480" y="-561.6700000000001" as="sourcePoint" />
            <mxPoint x="340" y="-561.6700000000001" as="targetPoint" />
          </mxGeometry>
        </mxCell>
        <mxCell id="mR88p4myXI2G3r5EA46a-16" value="" style="rhombus;whiteSpace=wrap;html=1;" vertex="1" parent="1">
          <mxGeometry x="-100" y="-90" width="40" height="40" as="geometry" />
        </mxCell>
        <mxCell id="mR88p4myXI2G3r5EA46a-17" value="&amp;lt; dá" style="text;align=center;html=1;verticalAlign=middle;whiteSpace=wrap;rounded=0;fontColor=#FF9999;" vertex="1" parent="1">
          <mxGeometry x="-80" y="-85" width="90" height="30" as="geometry" />
        </mxCell>
        <mxCell id="mR88p4myXI2G3r5EA46a-18" value="" style="shape=flexArrow;endArrow=classic;html=1;rounded=0;width=7;entryX=0.5;entryY=0;entryDx=0;entryDy=0;fillColor=#f8cecc;strokeColor=#b85450;" edge="1" parent="1" target="mR88p4myXI2G3r5EA46a-16">
          <mxGeometry width="50" height="50" relative="1" as="geometry">
            <mxPoint x="-80" y="-320" as="sourcePoint" />
            <mxPoint x="-210" y="-210" as="targetPoint" />
            <Array as="points">
              <mxPoint x="-80" y="-230" />
            </Array>
          </mxGeometry>
        </mxCell>
        <mxCell id="mR88p4myXI2G3r5EA46a-19" value="" style="endArrow=none;html=1;rounded=0;exitX=0.5;exitY=1;exitDx=0;exitDy=0;fillColor=#f8cecc;strokeColor=#b85450;entryX=0.5;entryY=1;entryDx=0;entryDy=0;" edge="1" parent="1" source="mR88p4myXI2G3r5EA46a-16" target="fPtEteICF-gz10orUt-t-34">
          <mxGeometry width="50" height="50" relative="1" as="geometry">
            <mxPoint x="-277.5" y="170" as="sourcePoint" />
            <mxPoint x="452.5" y="170" as="targetPoint" />
            <Array as="points">
              <mxPoint x="-80" y="170" />
              <mxPoint x="438" y="170" />
            </Array>
          </mxGeometry>
        </mxCell>
        <mxCell id="mR88p4myXI2G3r5EA46a-20" value="" style="rhombus;whiteSpace=wrap;html=1;" vertex="1" parent="1">
          <mxGeometry x="-317.5" y="-90" width="40" height="40" as="geometry" />
        </mxCell>
        <mxCell id="mR88p4myXI2G3r5EA46a-21" value="&amp;gt;&amp;nbsp; tem" style="text;align=center;html=1;verticalAlign=middle;whiteSpace=wrap;rounded=0;fontColor=#FF9999;" vertex="1" parent="1">
          <mxGeometry x="-392.5" y="-85" width="90" height="30" as="geometry" />
        </mxCell>
        <mxCell id="mR88p4myXI2G3r5EA46a-22" value="" style="shape=flexArrow;endArrow=classic;html=1;rounded=0;width=7;entryX=0.5;entryY=0;entryDx=0;entryDy=0;fillColor=#f8cecc;strokeColor=#b85450;" edge="1" parent="1" target="mR88p4myXI2G3r5EA46a-20">
          <mxGeometry width="50" height="50" relative="1" as="geometry">
            <mxPoint x="-297.5" y="-320" as="sourcePoint" />
            <mxPoint x="-297.5" y="-90" as="targetPoint" />
            <Array as="points">
              <mxPoint x="-297.5" y="-230" />
            </Array>
          </mxGeometry>
        </mxCell>
        <mxCell id="mR88p4myXI2G3r5EA46a-25" value="" style="endArrow=none;html=1;rounded=0;entryX=0.5;entryY=1;entryDx=0;entryDy=0;fillColor=#f8cecc;strokeColor=#b85450;exitX=1;exitY=0.5;exitDx=0;exitDy=0;" edge="1" parent="1" source="6Dvl7Cm2NqjIhnTXTcF5-62" target="mR88p4myXI2G3r5EA46a-20">
          <mxGeometry width="50" height="50" relative="1" as="geometry">
            <mxPoint x="-552" y="160" as="sourcePoint" />
            <mxPoint x="-220" y="160.07" as="targetPoint" />
            <Array as="points">
              <mxPoint x="-297" y="180" />
            </Array>
          </mxGeometry>
        </mxCell>
        <mxCell id="mR88p4myXI2G3r5EA46a-27" value="" style="shape=flexArrow;endArrow=classic;html=1;rounded=0;width=7;entryX=1;entryY=0.5;entryDx=0;entryDy=0;fillColor=#f8cecc;strokeColor=#b85450;exitX=0;exitY=0.5;exitDx=0;exitDy=0;" edge="1" parent="1" source="fPtEteICF-gz10orUt-t-1" target="6Dvl7Cm2NqjIhnTXTcF5-97">
          <mxGeometry width="50" height="50" relative="1" as="geometry">
            <mxPoint x="-170" y="-305" as="sourcePoint" />
            <mxPoint x="-169.5" y="-75" as="targetPoint" />
            <Array as="points" />
          </mxGeometry>
        </mxCell>
        <mxCell id="mR88p4myXI2G3r5EA46a-28" value="Sintomas" style="rounded=0;whiteSpace=wrap;html=1;" vertex="1" parent="1">
          <mxGeometry x="-695" y="-750" width="120" height="60" as="geometry" />
        </mxCell>
        <mxCell id="mR88p4myXI2G3r5EA46a-29" value="trabalha &amp;lt;" style="text;strokeColor=none;align=center;fillColor=none;html=1;verticalAlign=middle;whiteSpace=wrap;rounded=0;" vertex="1" parent="1">
          <mxGeometry x="75" y="295" width="90" height="30" as="geometry" />
        </mxCell>
        <mxCell id="mR88p4myXI2G3r5EA46a-32" value="" style="endArrow=none;html=1;rounded=0;exitX=0.5;exitY=0;exitDx=0;exitDy=0;entryX=0.5;entryY=1;entryDx=0;entryDy=0;" edge="1" parent="1" source="mR88p4myXI2G3r5EA46a-28" target="mR88p4myXI2G3r5EA46a-34">
          <mxGeometry width="50" height="50" relative="1" as="geometry">
            <mxPoint x="-520" y="-795" as="sourcePoint" />
            <mxPoint x="-524.5" y="-845" as="targetPoint" />
          </mxGeometry>
        </mxCell>
        <mxCell id="mR88p4myXI2G3r5EA46a-34" value="&lt;u&gt;nome&lt;/u&gt;" style="ellipse;whiteSpace=wrap;html=1;" vertex="1" parent="1">
          <mxGeometry x="-675" y="-860" width="80" height="60" as="geometry" />
        </mxCell>
        <mxCell id="mR88p4myXI2G3r5EA46a-37" value="" style="rhombus;whiteSpace=wrap;html=1;" vertex="1" parent="1">
          <mxGeometry x="-902" y="-260" width="40" height="40" as="geometry" />
        </mxCell>
        <mxCell id="mR88p4myXI2G3r5EA46a-38" value="&amp;gt; descrevem" style="text;align=center;html=1;verticalAlign=middle;whiteSpace=wrap;rounded=0;fontColor=#FF9999;" vertex="1" parent="1">
          <mxGeometry x="-997" y="-255" width="90" height="30" as="geometry" />
        </mxCell>
        <mxCell id="mR88p4myXI2G3r5EA46a-39" value="" style="endArrow=none;html=1;rounded=0;exitX=0.5;exitY=0;exitDx=0;exitDy=0;entryX=-0.001;entryY=0.198;entryDx=0;entryDy=0;entryPerimeter=0;" edge="1" parent="1" source="mR88p4myXI2G3r5EA46a-37" target="mR88p4myXI2G3r5EA46a-28">
          <mxGeometry width="50" height="50" relative="1" as="geometry">
            <mxPoint x="-790" y="130" as="sourcePoint" />
            <mxPoint x="-882" y="-360" as="targetPoint" />
            <Array as="points">
              <mxPoint x="-880" y="-738" />
            </Array>
          </mxGeometry>
        </mxCell>
        <mxCell id="mR88p4myXI2G3r5EA46a-40" value="" style="endArrow=classic;html=1;rounded=0;exitX=0.125;exitY=0;exitDx=0;exitDy=0;exitPerimeter=0;entryX=0.5;entryY=1;entryDx=0;entryDy=0;" edge="1" parent="1" source="6Dvl7Cm2NqjIhnTXTcF5-62" target="mR88p4myXI2G3r5EA46a-37">
          <mxGeometry width="50" height="50" relative="1" as="geometry">
            <mxPoint x="-795" y="-290" as="sourcePoint" />
            <mxPoint x="-680" y="-170" as="targetPoint" />
            <Array as="points">
              <mxPoint x="-677" y="-80" />
              <mxPoint x="-882" y="-80" />
            </Array>
          </mxGeometry>
        </mxCell>
        <mxCell id="mR88p4myXI2G3r5EA46a-41" value="" style="rhombus;whiteSpace=wrap;html=1;" vertex="1" parent="1">
          <mxGeometry x="140" y="60" width="40" height="40" as="geometry" />
        </mxCell>
        <mxCell id="mR88p4myXI2G3r5EA46a-42" value="" style="endArrow=classic;html=1;rounded=0;exitX=0.25;exitY=1;exitDx=0;exitDy=0;entryX=0.5;entryY=1;entryDx=0;entryDy=0;" edge="1" parent="1" source="fPtEteICF-gz10orUt-t-34" target="mR88p4myXI2G3r5EA46a-43">
          <mxGeometry width="50" height="50" relative="1" as="geometry">
            <mxPoint x="-622" y="160" as="sourcePoint" />
            <mxPoint x="-580" y="-180" as="targetPoint" />
            <Array as="points">
              <mxPoint x="414" y="140" />
              <mxPoint x="-592" y="140" />
              <mxPoint x="-592" y="-100" />
              <mxPoint x="-797" y="-100" />
            </Array>
          </mxGeometry>
        </mxCell>
        <mxCell id="mR88p4myXI2G3r5EA46a-43" value="" style="rhombus;whiteSpace=wrap;html=1;" vertex="1" parent="1">
          <mxGeometry x="-817" y="-260" width="40" height="40" as="geometry" />
        </mxCell>
        <mxCell id="mR88p4myXI2G3r5EA46a-44" value="&amp;gt; observam" style="text;align=center;html=1;verticalAlign=middle;whiteSpace=wrap;rounded=0;fontColor=#FF9999;" vertex="1" parent="1">
          <mxGeometry x="-772" y="-250" width="90" height="30" as="geometry" />
        </mxCell>
        <mxCell id="mR88p4myXI2G3r5EA46a-45" value="" style="endArrow=none;html=1;rounded=0;exitX=0.5;exitY=0;exitDx=0;exitDy=0;entryX=0;entryY=0.5;entryDx=0;entryDy=0;" edge="1" parent="1" source="mR88p4myXI2G3r5EA46a-43" target="mR88p4myXI2G3r5EA46a-28">
          <mxGeometry width="50" height="50" relative="1" as="geometry">
            <mxPoint x="-872" y="-443" as="sourcePoint" />
            <mxPoint x="-795" y="-340" as="targetPoint" />
            <Array as="points">
              <mxPoint x="-797" y="-720" />
            </Array>
          </mxGeometry>
        </mxCell>
        <mxCell id="mR88p4myXI2G3r5EA46a-49" value="" style="endArrow=none;html=1;rounded=0;entryX=1;entryY=0.5;entryDx=0;entryDy=0;exitX=0;exitY=0.5;exitDx=0;exitDy=0;" edge="1" parent="1" source="mR88p4myXI2G3r5EA46a-50" target="mR88p4myXI2G3r5EA46a-28">
          <mxGeometry width="50" height="50" relative="1" as="geometry">
            <mxPoint x="-310" y="-720" as="sourcePoint" />
            <mxPoint x="-467" y="-710" as="targetPoint" />
            <Array as="points" />
          </mxGeometry>
        </mxCell>
        <mxCell id="mR88p4myXI2G3r5EA46a-50" value="" style="rhombus;whiteSpace=wrap;html=1;" vertex="1" parent="1">
          <mxGeometry x="-130" y="-740" width="40" height="40" as="geometry" />
        </mxCell>
        <mxCell id="mR88p4myXI2G3r5EA46a-51" value="&amp;gt; é registado" style="text;align=center;html=1;verticalAlign=middle;whiteSpace=wrap;rounded=0;fontColor=#FF9999;" vertex="1" parent="1">
          <mxGeometry x="-160" y="-770" width="90" height="30" as="geometry" />
        </mxCell>
        <mxCell id="mR88p4myXI2G3r5EA46a-52" value="" style="endArrow=none;html=1;rounded=0;exitX=0.5;exitY=1;exitDx=0;exitDy=0;" edge="1" parent="1" source="mR88p4myXI2G3r5EA46a-50">
          <mxGeometry width="50" height="50" relative="1" as="geometry">
            <mxPoint x="-120" y="-710" as="sourcePoint" />
            <mxPoint x="-110" y="-560" as="targetPoint" />
            <Array as="points" />
          </mxGeometry>
        </mxCell>
        <mxCell id="mR88p4myXI2G3r5EA46a-54" value="Receita Médica" style="rounded=0;whiteSpace=wrap;html=1;" vertex="1" parent="1">
          <mxGeometry x="75" y="-750" width="120" height="60" as="geometry" />
        </mxCell>
        <mxCell id="mR88p4myXI2G3r5EA46a-55" value="" style="endArrow=none;html=1;rounded=0;exitX=0.5;exitY=0;exitDx=0;exitDy=0;entryX=0.5;entryY=1;entryDx=0;entryDy=0;" edge="1" parent="1" source="mR88p4myXI2G3r5EA46a-54" target="mR88p4myXI2G3r5EA46a-56">
          <mxGeometry width="50" height="50" relative="1" as="geometry">
            <mxPoint x="160" y="-790" as="sourcePoint" />
            <mxPoint x="130" y="-830" as="targetPoint" />
          </mxGeometry>
        </mxCell>
        <mxCell id="mR88p4myXI2G3r5EA46a-56" value="&lt;u&gt;Código SNS&lt;/u&gt;" style="ellipse;whiteSpace=wrap;html=1;" vertex="1" parent="1">
          <mxGeometry x="95" y="-890" width="80" height="60" as="geometry" />
        </mxCell>
        <mxCell id="mR88p4myXI2G3r5EA46a-57" value="" style="endArrow=none;html=1;rounded=0;entryX=1;entryY=0.5;entryDx=0;entryDy=0;exitX=0;exitY=0.5;exitDx=0;exitDy=0;" edge="1" parent="1" source="mR88p4myXI2G3r5EA46a-58" target="mR88p4myXI2G3r5EA46a-54">
          <mxGeometry width="50" height="50" relative="1" as="geometry">
            <mxPoint x="385" y="-720" as="sourcePoint" />
            <mxPoint x="220" y="-710" as="targetPoint" />
            <Array as="points" />
          </mxGeometry>
        </mxCell>
        <mxCell id="mR88p4myXI2G3r5EA46a-58" value="" style="rhombus;whiteSpace=wrap;html=1;" vertex="1" parent="1">
          <mxGeometry x="360" y="-740" width="40" height="40" as="geometry" />
        </mxCell>
        <mxCell id="mR88p4myXI2G3r5EA46a-59" value="&amp;gt; contém" style="text;align=center;html=1;verticalAlign=middle;whiteSpace=wrap;rounded=0;fontColor=#FF9999;" vertex="1" parent="1">
          <mxGeometry x="330" y="-770" width="90" height="30" as="geometry" />
        </mxCell>
        <mxCell id="mR88p4myXI2G3r5EA46a-60" value="Medicamentos" style="rounded=0;whiteSpace=wrap;html=1;" vertex="1" parent="1">
          <mxGeometry x="556" y="-750" width="120" height="60" as="geometry" />
        </mxCell>
        <mxCell id="mR88p4myXI2G3r5EA46a-62" value="" style="endArrow=none;html=1;rounded=0;exitX=0.5;exitY=0;exitDx=0;exitDy=0;entryX=0.5;entryY=1;entryDx=0;entryDy=0;" edge="1" parent="1" source="mR88p4myXI2G3r5EA46a-60" target="mR88p4myXI2G3r5EA46a-63">
          <mxGeometry width="50" height="50" relative="1" as="geometry">
            <mxPoint x="640" y="-760" as="sourcePoint" />
            <mxPoint x="616" y="-830" as="targetPoint" />
          </mxGeometry>
        </mxCell>
        <mxCell id="mR88p4myXI2G3r5EA46a-63" value="&lt;u&gt;Nome&lt;/u&gt;" style="ellipse;whiteSpace=wrap;html=1;" vertex="1" parent="1">
          <mxGeometry x="576" y="-890" width="80" height="60" as="geometry" />
        </mxCell>
        <mxCell id="mR88p4myXI2G3r5EA46a-65" value="" style="shape=link;html=1;rounded=0;exitX=0;exitY=0.5;exitDx=0;exitDy=0;entryX=1;entryY=0.5;entryDx=0;entryDy=0;" edge="1" parent="1" source="mR88p4myXI2G3r5EA46a-60" target="mR88p4myXI2G3r5EA46a-58">
          <mxGeometry width="100" relative="1" as="geometry">
            <mxPoint x="630" y="-600" as="sourcePoint" />
            <mxPoint x="420" y="-600" as="targetPoint" />
          </mxGeometry>
        </mxCell>
        <mxCell id="mR88p4myXI2G3r5EA46a-66" value="" style="shape=flexArrow;endArrow=classic;html=1;rounded=0;width=7;entryX=1;entryY=0.5;entryDx=0;entryDy=0;fillColor=#f8cecc;strokeColor=#b85450;exitX=0;exitY=0.5;exitDx=0;exitDy=0;" edge="1" parent="1" source="mR88p4myXI2G3r5EA46a-54" target="mR88p4myXI2G3r5EA46a-50">
          <mxGeometry width="50" height="50" relative="1" as="geometry">
            <mxPoint x="75" y="-705.5899999999999" as="sourcePoint" />
            <mxPoint x="-90" y="-705.5899999999999" as="targetPoint" />
            <Array as="points" />
          </mxGeometry>
        </mxCell>
        <mxCell id="mR88p4myXI2G3r5EA46a-68" value="" style="shape=link;html=1;rounded=0;exitX=0.5;exitY=1;exitDx=0;exitDy=0;entryX=1;entryY=0.5;entryDx=0;entryDy=0;" edge="1" parent="1" source="mR88p4myXI2G3r5EA46a-28" target="mR88p4myXI2G3r5EA46a-70">
          <mxGeometry width="100" relative="1" as="geometry">
            <mxPoint x="-534.5" y="-378" as="sourcePoint" />
            <mxPoint x="-635" y="-610" as="targetPoint" />
          </mxGeometry>
        </mxCell>
        <mxCell id="mR88p4myXI2G3r5EA46a-70" value="" style="triangle;whiteSpace=wrap;html=1;rotation=-90;" vertex="1" parent="1">
          <mxGeometry x="-655" y="-610" width="40" height="50" as="geometry" />
        </mxCell>
        <mxCell id="mR88p4myXI2G3r5EA46a-72" value="x" style="text;strokeColor=none;align=center;fillColor=none;html=1;verticalAlign=middle;whiteSpace=wrap;rounded=0;" vertex="1" parent="1">
          <mxGeometry x="-650" y="-596" width="30" height="28" as="geometry" />
        </mxCell>
        <mxCell id="mR88p4myXI2G3r5EA46a-73" value="" style="endArrow=none;html=1;rounded=0;entryX=0;entryY=0.5;entryDx=0;entryDy=0;exitX=0.472;exitY=-0.006;exitDx=0;exitDy=0;exitPerimeter=0;" edge="1" parent="1" source="mR88p4myXI2G3r5EA46a-76" target="mR88p4myXI2G3r5EA46a-70">
          <mxGeometry width="50" height="50" relative="1" as="geometry">
            <mxPoint x="-577" y="-465" as="sourcePoint" />
            <mxPoint x="-640" y="-540" as="targetPoint" />
            <Array as="points">
              <mxPoint x="-577" y="-510" />
              <mxPoint x="-635" y="-510" />
            </Array>
          </mxGeometry>
        </mxCell>
        <mxCell id="mR88p4myXI2G3r5EA46a-74" value="" style="endArrow=none;html=1;rounded=0;entryX=0;entryY=0.5;entryDx=0;entryDy=0;exitX=0.5;exitY=0;exitDx=0;exitDy=0;" edge="1" parent="1" source="mR88p4myXI2G3r5EA46a-75" target="mR88p4myXI2G3r5EA46a-70">
          <mxGeometry width="50" height="50" relative="1" as="geometry">
            <mxPoint x="-690" y="-470" as="sourcePoint" />
            <mxPoint x="-640" y="-560" as="targetPoint" />
            <Array as="points">
              <mxPoint x="-690" y="-510" />
              <mxPoint x="-635" y="-510" />
            </Array>
          </mxGeometry>
        </mxCell>
        <mxCell id="mR88p4myXI2G3r5EA46a-75" value="Qualitativos" style="rounded=0;whiteSpace=wrap;html=1;" vertex="1" parent="1">
          <mxGeometry x="-737" y="-463" width="95" height="50" as="geometry" />
        </mxCell>
        <mxCell id="mR88p4myXI2G3r5EA46a-76" value="Quantitativos" style="rounded=0;whiteSpace=wrap;html=1;" vertex="1" parent="1">
          <mxGeometry x="-622" y="-463" width="95" height="50" as="geometry" />
        </mxCell>
        <mxCell id="mR88p4myXI2G3r5EA46a-77" value="" style="endArrow=none;html=1;rounded=0;entryX=0.5;entryY=1;entryDx=0;entryDy=0;exitX=0.5;exitY=0;exitDx=0;exitDy=0;" edge="1" parent="1" source="mR88p4myXI2G3r5EA46a-78" target="mR88p4myXI2G3r5EA46a-76">
          <mxGeometry width="50" height="50" relative="1" as="geometry">
            <mxPoint x="-574" y="-360" as="sourcePoint" />
            <mxPoint x="-577" y="-405" as="targetPoint" />
          </mxGeometry>
        </mxCell>
        <mxCell id="mR88p4myXI2G3r5EA46a-78" value="&lt;u&gt;valor&lt;/u&gt;" style="ellipse;whiteSpace=wrap;html=1;" vertex="1" parent="1">
          <mxGeometry x="-614.5" y="-380" width="80" height="60" as="geometry" />
        </mxCell>
      </root>
    </mxGraphModel>
  </diagram>
</mxfile>
